<?xml version="1.0" encoding="UTF-8"?>
<!DOCTYPE svg PUBLIC "-//W3C//DTD SVG 1.1//EN" "http://www.w3.org/Graphics/SVG/1.1/DTD/svg11.dtd">
<!-- Creator: CorelDRAW 2019 (64 Bit) -->
<svg xmlns="http://www.w3.org/2000/svg" xml:space="preserve" width="100mm" height="45mm" version="1.1" style="shape-rendering:geometricPrecision; text-rendering:geometricPrecision; image-rendering:optimizeQuality; fill-rule:evenodd; clip-rule:evenodd"
viewBox="0 0 10000 4500"
 xmlns:xlink="http://www.w3.org/1999/xlink">
 <defs>
  <style type="text/css">
   <![CDATA[
    .fil0 {fill:#FEFEFE}
   ]]>
  </style>
 </defs>
 <g id="Camada_x0020_1">
  <metadata id="CorelCorpID_0Corel-Layer"/>
  <path class="fil0" d="M2382.55 679.8c-988.63,325.7 -1801.88,837.77 -2022.3,1526.06 -219.2,684.48 138.53,1317.15 875.53,1435.05 25.17,3.83 51.22,7.74 77.8,10.84 65.71,7.97 129.05,10.31 195.25,10.31l1736.36 0c10.33,0 19.14,-5.98 22.96,-15.58 222.8,-560.27 348.86,-883.08 543.59,-1367.74 11.76,-29.28 19.92,-55.23 25.77,-77.6 0.2,-0.75 0.34,-1.39 0.47,-2.15 17.12,-101.73 -63.33,-140.93 -106.59,-145.53 -0.41,-0.05 -0.76,-0.08 -1.17,-0.1 -28.68,-1.67 -61.78,-1.53 -98.82,-1.53 -245.8,0 -623.93,-0.14 -792.32,-0.58 -10.35,-0.03 -19.2,5.96 -23.02,15.59l-166.94 420.86c-3.11,7.85 -2.22,16.01 2.52,22.99 4.74,6.98 12.01,10.83 20.44,10.83l225.65 0c8.45,0 15.72,3.86 20.46,10.86 4.74,7 5.61,15.19 2.46,23.03l-57.88 144.34c-3.83,9.56 -12.62,15.51 -22.92,15.51l-1336.1 0c-8.17,0 -15.21,-3.59 -20,-10.21 -4.79,-6.61 -6.03,-14.4 -3.5,-22.17 362.37,-1111.57 949.04,-1688.39 1730.58,-1994.23 418.57,-164.16 1006.43,-280.09 1492.37,-310.6 13.42,-0.85 23.73,-12.34 23.12,-25.78 -0.61,-13.32 -11.7,-23.77 -25.04,-23.58 -808.97,11.65 -1523.21,89.03 -2318.73,351.11zm7267.48 3820.2c192.39,0 349.97,-157.49 349.97,-350l0 -2454.31c0,-13.6 -11.1,-24.7 -24.7,-24.7l-1933.07 0c-0.37,0 -0.68,0.01 -1.04,0.02 -34.34,1.44 -64.3,15.2 -85.89,39.53 -17.22,19.3 -25.31,42.2 -33.94,65.55 -19.9,52.3 -39.6,103.82 -59.75,155.49 -0.07,0.17 -0.12,0.31 -0.18,0.47 -7.1,19.35 -8.41,34.29 -3.39,55.05 0.25,1.06 0.53,1.95 0.92,2.97 9.45,24.85 25.99,47.5 63.45,57 0.94,0.24 1.76,0.4 2.73,0.53 11.88,1.62 25.3,1.37 41.01,1.51l107.49 0 0 -0.14 1503.2 0c88.42,0 147.34,75.4 119.95,158.85 -0.09,0.28 -0.17,0.52 -0.28,0.79 -3.38,9.25 -7.16,19.03 -10.44,28.24 -0.08,0.23 -0.14,0.42 -0.23,0.64 -107.7,277.96 -218.76,556.07 -330.2,834.77 -13.61,34.29 -30.92,66.48 -51.25,97.7 -216.61,336.34 -564.14,487.92 -1437.74,490.26 -452.9,1.46 -1969.34,0.38 -2637.72,0l-278.94 0c-8.44,0 -15.7,-3.85 -20.44,-10.83 -4.74,-6.99 -5.64,-15.15 -2.52,-22.99l205.68 -518.03c3.82,-9.6 12.63,-15.59 22.97,-15.59l244.97 0 2571.72 0c42.07,0 76.3,-18.84 99.49,-51.18 0.12,-0.17 0.23,-0.32 0.35,-0.5 5.31,-7.8 9.24,-16.35 13.48,-24.87 0.1,-0.2 0.19,-0.37 0.28,-0.58 27.34,-58.64 50.79,-115.5 72.8,-191.41 0.11,-0.37 0.2,-0.69 0.28,-1.06 1.59,-6.54 3.44,-12.8 3.48,-19.66 0,-0.19 0.01,-0.36 0.01,-0.55 0.8,-28.52 -10.81,-54.71 -36.41,-72.59 -9.73,-7.04 -22.58,-12.26 -37.89,-14.07 -0.43,-0.05 -0.79,-0.09 -1.22,-0.11 -13.8,-0.95 -28.71,-1.32 -45.55,-1.08l-1496.46 0 -26.82 0c-25.28,0 -50.52,0 -75.66,0.14 -0.4,0 -0.73,-0.01 -1.13,-0.02 -11.02,-0.44 -21.94,-2.82 -32.02,-6.62 -0.2,-0.08 -0.36,-0.14 -0.56,-0.22 -40.41,-16.34 -61.25,-60.19 -47.45,-104.16 0.13,-0.4 0.25,-0.74 0.39,-1.14 9.48,-25.73 18.21,-51.6 27.8,-77.06 0.12,-0.31 0.23,-0.58 0.35,-0.88 31.11,-73.85 58.76,-142.32 84.62,-207.22 56.13,-141.47 165.49,-420.03 211.87,-533.49 49.56,-121.64 97.24,-224.42 183.56,-332.15 0.26,-0.32 0.48,-0.6 0.75,-0.9 223.11,-252.82 583.12,-353.38 1367.04,-355.72 347.67,-1.25 642.4,-0.63 989.69,-0.52 174.46,0.23 556.48,0.5 747.86,0.52 13.61,-0.01 24.7,-11.1 24.7,-24.71l0 -720.97c0,-192.52 -157.58,-350 -349.97,-350l-9300.07 0c-192.38,0 -349.96,157.48 -349.96,350l0 3800c0,192.51 157.58,350 349.96,350l9300.07 0zm-4360.08 -2813.54l-776.33 1960c-3.81,9.61 -12.63,15.6 -22.97,15.6l-787.54 0c-8.44,0 -15.7,-3.84 -20.44,-10.82 -4.74,-6.98 -5.64,-15.14 -2.53,-22.99l762.39 -1922.61c3.11,-7.84 2.21,-16.01 -2.53,-22.99 -4.74,-6.98 -12,-10.82 -20.44,-10.82l-1316.75 0c-8.45,0 -15.72,-3.86 -20.46,-10.86 -4.73,-7.01 -5.61,-15.19 -2.46,-23.03l210.02 -523.92c3.83,-9.56 12.62,-15.51 22.93,-15.51l3039.61 0 295.09 0c8.49,0 15.79,3.89 20.52,10.95 4.73,7.05 5.56,15.28 2.33,23.14l-152.59 371.44c-39.91,100.57 -107.88,166.95 -230.96,166.81l-84.8 0c-78.93,-0.24 -157.36,0 -235.9,0l-653.22 0c-10.34,0 -19.16,5.99 -22.97,15.61z"/>
 </g>
</svg>
