<svg version="1.2" xmlns="http://www.w3.org/2000/svg" viewBox="0 0 2560 1440" width="2560" height="1440">
	<title>Novo Projeto</title>
	<style>
		.s0 { fill: #ffffff } 
		.s1 { fill: #ff6a00;stroke: #ffffff;stroke-miterlimit:100;stroke-width: .6 } 
		.s2 { fill: #ff6a00 } 
	</style>
	<path id="Object 29" fill-rule="evenodd" class="s0" d="m255.9 1008.7h84c-14 90-93.4 123.2-169.1 123.2-82.8 0-170.8-39.7-170.8-149 0-109.8 88-149.5 170.8-149.5 75.7 0 155.1 33.6 169.1 123.7h-84c-9-39.3-34-66-85.1-66-58.6 0-88.1 36.1-88.1 91.8 0 55.2 29.5 91.3 88.1 91.3 51.1 0 76.1-26.6 85.1-65.5zm466-25.8c0 109.3-95.8 149-178.5 149-82.7 0-179-39.7-179-149 0-109.8 96.3-149.5 179-149.5 82.7 0 178.5 39.7 178.5 149.5zm-82.7 0c0-56.5-35.2-91.8-95.8-91.8-61 0-95.9 35.3-95.9 91.8 0 56.5 34.9 91.3 95.9 91.3 60.6 0 95.8-34.8 95.8-91.3zm386.9 143.3h-267.4v-286.7h81.5v228.5h185.9zm373.9-143.3c0 109.4-95.8 149.1-178.6 149.1-82.7 0-178.9-39.7-178.9-149.1 0-109.7 96.2-149.4 178.9-149.4 82.8 0 178.6 39.7 178.6 149.4zm-82.7 0c0-56.5-35.3-91.7-95.9-91.7-61 0-95.8 35.2-95.8 91.7 0 56.5 34.8 91.3 95.8 91.3 60.6 0 95.9-34.8 95.9-91.3zm433.6-143.3v286.6h-87.2l-145.4-190.8v190.8h-81.5v-286.6h87.2l145.4 190.8v-190.8zm131 0v286.6h-81.4v-286.6zm205.5 60.6l-70.8 167.5h74.5v58.5h-184.7l132.7-286.6h96.6l132.3 286.6h-85.6zm472.5 226.1h-267.4v-286.7h81.5v228.5h185.9z"/>
	<path id="Object 30" fill-rule="evenodd" class="s0" d="m455.3 1230.5v115.1h-14v-115.1zm26.1 115.1v-86.3h12.8v13.5h1.2q2.7-6.9 8.7-10.8 6-3.8 14.4-3.8 8.5 0 14.3 3.8 5.7 3.9 8.9 10.8h0.9q3.3-6.7 9.9-10.7 6.6-3.9 15.9-3.9 11.6 0 19 7.2 7.4 7.2 7.4 22.5v57.7h-13.3v-57.7q0-9.6-5.2-13.7-5.3-4.1-12.4-4.1-9.1 0-14.1 5.5-5 5.5-5 13.8v56.2h-13.5v-59.1q0-7.4-4.8-11.9-4.7-4.5-12.2-4.5-5.2 0-9.7 2.7c-3 1.9-5.4 4.4-7.2 7.6q-2.7 4.9-2.7 11.3v53.9zm137.6 32.4v-118.7h12.8v13.7h1.6q1.5-2.3 4.1-5.8 2.6-3.5 7.5-6.3 4.9-2.7 13.4-2.7 10.9 0 19.2 5.4 8.3 5.5 13 15.5 4.6 10 4.6 23.6 0 13.7-4.6 23.7-4.7 10.1-12.9 15.5-8.3 5.5-19.1 5.5-8.3 0-13.3-2.7-5-2.8-7.8-6.4-2.6-3.6-4.1-5.9h-1.1v45.6zm13-75.5q0 9.7 2.9 17.2c1.9 5 4.7 8.8 8.4 11.6q5.5 4.2 13.5 4.2 8.3 0 13.9-4.4c3.7-2.9 6.5-6.9 8.4-11.9q2.9-7.5 2.9-16.7-0.1-9.1-2.8-16.5-2.8-7.3-8.4-11.6c-3.8-2.9-8.4-4.3-14-4.3q-8.1 0-13.7 4.1-5.5 4-8.3 11.3-2.8 7.3-2.8 17zm96.7-72v115.1h-13.3v-115.1zm60.5 116.9q-12.5 0-21.5-5.5-9-5.6-13.9-15.5-4.8-10-4.8-23.3 0-13.2 4.8-23.4 4.9-10.1 13.6-15.8 8.8-5.7 20.5-5.7 6.7 0 13.3 2.2 6.6 2.3 12 7.3 5.4 5 8.6 13.3 3.2 8.3 3.2 20.3v5.7h-62.7q0.3 8.6 3.4 14.7 3.3 6.8 9.4 10.3 6.1 3.5 14.1 3.5 5.2 0 9.5-1.5c2.8-1 5.3-2.5 7.3-4.5q3.1-3 4.8-7.5l12.8 3.6q-2 6.5-6.8 11.5-4.7 4.9-11.8 7.6-7 2.7-15.8 2.7zm22.3-51.9q0-7.3-2.9-13.1-2.9-5.7-8.2-9-5.3-3.3-12.5-3.3-7.9 0-13.7 3.9-5.8 3.9-8.9 10.1-2.6 5.4-3 11.4zm33.7 50.1v-86.3h12.9v13.5h1.1q2.7-6.9 8.7-10.8 6-3.8 14.4-3.8 8.6 0 14.3 3.8 5.7 3.9 8.9 10.8h0.9q3.3-6.7 10-10.7 6.6-3.9 15.9-3.9 11.5 0 18.9 7.2 7.4 7.2 7.4 22.5v57.7h-13.3v-57.7q0-9.6-5.2-13.7-5.2-4.1-12.3-4.1-9.1 0-14.2 5.5-4.9 5.5-4.9 13.8v56.2h-13.5v-59.1q0-7.4-4.8-11.9-4.8-4.5-12.3-4.5-5.2 0-9.7 2.7c-3 1.9-5.4 4.4-7.2 7.6q-2.7 4.9-2.7 11.3v53.9zm173.8 1.8q-12.4 0-21.5-5.5-9-5.6-13.9-15.5-4.8-10-4.8-23.3 0-13.2 4.8-23.4 4.9-10.1 13.7-15.8 8.7-5.7 20.4-5.7 6.7 0 13.3 2.2 6.6 2.3 12 7.3 5.4 5 8.6 13.3 3.2 8.3 3.2 20.3v5.7h-62.7q0.3 8.6 3.4 14.7 3.3 6.8 9.4 10.3 6.1 3.5 14.1 3.5 5.3 0 9.5-1.5c2.9-1 5.3-2.5 7.3-4.5q3.2-3 4.8-7.5l12.8 3.6q-2 6.5-6.7 11.5-4.8 4.9-11.9 7.6-7 2.7-15.8 2.7zm22.3-51.9q0-7.3-2.9-13.1-2.9-5.7-8.2-9-5.3-3.3-12.5-3.3-7.9 0-13.7 3.9-5.8 3.9-8.8 10.1-2.7 5.4-3.1 11.4zm47-1.8v51.9h-13.2v-86.3h12.8v13.5h1.1c2-4.4 5.1-7.9 9.2-10.6q6.2-4 16-4 8.8 0 15.3 3.5c4.4 2.4 7.8 6 10.3 10.8q3.6 7.3 3.6 18.3v54.8h-13.3v-53.9c0-6.8-1.7-12.1-5.2-15.9q-5.3-5.7-14.5-5.7-6.4 0-11.4 2.7-4.9 2.8-7.8 8.1-2.9 5.3-2.9 12.8zm117-34.4v11.2h-18.5v50.4q0 5.6 1.7 8.4 1.6 2.8 4.2 3.7c1.8 0.6 3.6 0.9 5.6 0.9 1.4 0 2.6 0 3.6-0.2 0.9-0.2 1.7-0.3 2.2-0.4l2.7 11.9q-1.3 0.5-3.8 1-2.4 0.6-6.1 0.6-5.6 0-11-2.5-5.3-2.4-8.8-7.3-3.6-5-3.6-12.5v-54h-13v-11.2h13v-20.7h13.3v20.7zm54.2 88.1q-11.7 0-20.5-5.5-8.8-5.6-13.7-15.6-4.9-10-4.9-23.4 0-13.5 4.9-23.5c3.3-6.7 7.9-12 13.7-15.7q8.8-5.5 20.5-5.5 11.7 0 20.5 5.5c5.9 3.7 10.4 9 13.7 15.7q5 10 4.9 23.5 0.1 13.4-4.9 23.4-4.9 10-13.7 15.6-8.8 5.5-20.5 5.5zm0-11.9q8.9 0 14.6-4.5 5.8-4.6 8.5-12c1.9-4.9 2.8-10.3 2.8-16.1q0-8.7-2.8-16.1-2.7-7.5-8.5-12.1-5.7-4.6-14.6-4.6c-5.9 0-10.8 1.5-14.6 4.6q-5.7 4.6-8.5 12.1-2.8 7.4-2.7 16.1c0 5.8 0.9 11.2 2.7 16.1q2.8 7.4 8.5 12 5.7 4.5 14.6 4.5zm120.5-56.9l-11.9 3.4c-0.7-2-1.8-3.9-3.3-5.8q-2.1-2.9-5.8-4.7-3.7-1.9-9.5-1.9-8 0-13.2 3.7c-3.5 2.4-5.3 5.4-5.3 9.1q0 5 3.6 7.8 3.6 2.9 11.3 4.8l12.8 3.2q11.6 2.8 17.3 8.6 5.6 5.7 5.6 14.8 0 7.4-4.2 13.2c-2.8 3.9-6.8 7-11.8 9.3q-7.6 3.3-17.7 3.3-13.2 0-21.9-5.7-8.6-5.7-10.9-16.8l12.6-3.1q1.7 7 6.8 10.5 5 3.4 13.2 3.4 9.2 0 14.7-3.9c3.7-2.7 5.5-5.9 5.5-9.5q0-4.6-3.1-7.6-3.2-3.1-9.7-4.6l-14.4-3.4q-11.9-2.8-17.4-8.7-5.5-5.9-5.5-14.9 0-7.3 4.1-12.9 4.1-5.6 11.3-8.8c4.8-2.2 10.2-3.2 16.3-3.2q12.8 0 20.1 5.6 7.4 5.6 10.4 14.8zm72.7 67h-14.6l42.3-115.1h14.3l42.3 115.1h-14.6l-11.6-32.6h6.2v-12.4h-10.6l-18.4-51.9h-0.9l-18.4 51.9h-10.6v12.4h6.2zm11.5-32.6l4.4-12.4h37.8l4.4 12.4zm123.8 66.8c-6.4 0-11.9-0.8-16.5-2.4q-6.9-2.5-11.5-6.5-4.6-3.9-7.3-8.4l10.6-7.4c1.2 1.5 2.7 3.3 4.5 5.4q2.8 3 7.6 5.3c3.2 1.6 7.4 2.3 12.6 2.3q10.5 0 17.3-5 6.8-5.1 6.8-15.9v-17.5h-1.1q-1.5 2.3-4.2 5.8c-1.8 2.3-4.3 4.3-7.6 6.1q-5 2.7-13.4 2.7-10.5 0-18.8-5c-5.5-3.3-9.9-8.1-13.1-14.4q-4.8-9.4-4.8-22.9 0-13.3 4.7-23.1 4.7-9.9 13-15.3 8.3-5.5 19.2-5.4 8.4 0 13.4 2.7 5 2.8 7.7 6.3 2.6 3.5 4.1 5.8h1.3v-13.7h12.8v88.8q0 11.1-5 18.1-5 7-13.5 10.3-8.4 3.3-18.8 3.3zm-0.4-47.5q7.9 0 13.5-3.6c3.6-2.4 6.4-5.9 8.3-10.5 1.9-4.6 2.9-10 2.9-16.4q0-9.4-2.8-16.5-2.8-7.2-8.3-11.2-5.5-4-13.6-4-8.5 0-14.1 4.2-5.6 4.3-8.3 11.5-2.8 7.2-2.8 16 0 9 2.8 15.9 2.9 6.8 8.5 10.7 5.5 4 13.9 3.9zm62 13.3v-86.3h12.8v13h0.9q2.4-6.4 8.6-10.4 6.2-4 13.9-4 1.5 0 3.7 0.1 2.2 0 3.3 0.2v13.4q-0.7-0.1-3.1-0.5-2.3-0.4-5-0.4-6.3 0-11.2 2.6-5 2.7-7.8 7.3-2.8 4.5-2.8 10.4v54.6zm72.2-86.3v86.3h-13.3v-86.3zm-12.6-11.7l13.7-26.1h15.5l-17.5 26.1zm72 99.8q-12.2 0-21-5.7c-5.8-3.8-10.3-9.1-13.4-15.8-3.2-6.7-4.8-14.4-4.8-23q0-13.2 4.9-23.2 4.9-10.1 13.6-15.8 8.8-5.7 20.4-5.7 9.1-0.1 16.4 3.3 7.4 3.4 12 9.5 4.7 6 5.8 14.1h-13.3q-1.5-5.9-6.7-10.5-5.2-4.5-13.9-4.5-7.8 0-13.6 4-5.8 4-9.1 11.3c-2.1 4.8-3.2 10.5-3.2 17.1 0 6.6 1.1 12.4 3.2 17.4q3.1 7.4 9 11.5 5.8 4.1 13.7 4.1 5.1 0 9.4-1.8 4.2-1.8 7.1-5.2 2.9-3.3 4.1-8.1h13.3q-1.1 7.7-5.5 13.8-4.5 6.1-11.7 9.7-7.2 3.5-16.7 3.5zm88.3 0q-11.7 0-20.5-5.6-8.8-5.5-13.7-15.5-4.9-10-4.9-23.4 0-13.5 4.9-23.6c3.3-6.7 7.9-11.9 13.7-15.6q8.8-5.6 20.5-5.5 11.7-0.1 20.5 5.5c5.9 3.7 10.5 8.9 13.7 15.6q5 10.1 5 23.6 0 13.4-5 23.4-4.9 10-13.7 15.5-8.8 5.6-20.5 5.6zm0-11.9q8.9 0 14.6-4.5 5.8-4.6 8.5-12c1.9-5 2.8-10.3 2.8-16.1q0-8.7-2.8-16.1-2.7-7.5-8.5-12.1-5.7-4.6-14.6-4.6c-5.9 0-10.8 1.5-14.6 4.6q-5.7 4.6-8.5 12.1-2.7 7.4-2.7 16.1c0 5.8 0.9 11.1 2.7 16.1q2.8 7.4 8.5 12 5.7 4.5 14.6 4.5zm72.7-105v115.1h-13.3v-115.1zm49.7 117.2q-8.2-0.1-14.9-3.2c-4.5-2-8-5.1-10.6-9-2.6-4-4-8.8-4-14.4q0-7.4 3-12.1 2.9-4.6 7.8-7.2 4.8-2.7 10.8-4 5.9-1.3 11.9-2.1c5.3-0.7 9.5-1.2 12.8-1.6q5-0.5 7.2-1.8c1.5-0.8 2.3-2.3 2.3-4.5v-0.4q0-8.4-4.5-12.9-4.5-4.7-13.7-4.7-9.5 0-14.9 4.2-5.4 4.2-7.6 8.9l-12.6-4.5q3.4-7.9 9-12.3c3.8-2.9 7.9-5 12.4-6.2q6.7-1.8 13.2-1.7 4.2-0.1 9.6 0.9 5.4 1 10.5 4 5.1 3.1 8.5 9.2c2.2 4.1 3.4 9.6 3.4 16.4v56.9h-13.3v-11.7h-0.7q-1.3 2.8-4.5 6-3.1 3.3-8.3 5.5-5.3 2.2-12.8 2.3zm2-12q7.9 0 13.3-3.1 5.4-3 8.2-8 2.8-4.8 2.8-10.2v-12.2q-0.8 1-3.7 1.8-2.8 0.9-6.5 1.5c-2.4 0.4-4.8 0.7-7.1 1q-3.5 0.4-5.6 0.7c-3.5 0.4-6.7 1.1-9.7 2.1q-4.4 1.5-7.2 4.5-2.7 2.9-2.7 8 0 6.9 5.2 10.4 5.1 3.5 13 3.5zm123-57.1l-11.9 3.4c-0.7-2-1.8-4-3.3-5.8q-2.1-2.9-5.9-4.7-3.6-1.9-9.5-1.9-7.9 0-13.1 3.6c-3.5 2.4-5.3 5.5-5.3 9.2q0 5 3.6 7.8 3.6 2.9 11.3 4.8l12.8 3.2q11.5 2.8 17.2 8.6 5.7 5.7 5.7 14.8 0 7.4-4.2 13.2c-2.9 3.9-6.8 7-11.9 9.2q-7.6 3.4-17.6 3.4-13.2 0-21.9-5.7-8.6-5.8-11-16.8l12.6-3.1q1.8 7 6.9 10.4 5 3.5 13.1 3.5 9.3 0 14.8-3.9c3.7-2.7 5.5-5.9 5.5-9.6q0-4.5-3.2-7.5-3.1-3.1-9.6-4.6l-14.4-3.4q-11.9-2.8-17.4-8.7-5.5-6-5.5-14.9-0.1-7.3 4.1-12.9 4.1-5.6 11.3-8.9c4.8-2.1 10.2-3.1 16.2-3.1q12.9 0 20.2 5.6 7.3 5.6 10.4 14.8z"/>
	<path id="Object 32" class="s1" d="m1417.9 376.2c-49.3 0-96.2 11.5-137.6 31.7-56.9-63-139.2-98.9-228.3-98.9-14.9 0-46.2 1.9-60.8 4-1.7 15.1-0.8 22.6-3 34.4 17.5-3.4 45.7-5.9 63.8-5.9 76.7 0 148 30.2 198 83.4-9.6 6.1-18.9 12.8-27.7 20-43.4-45.3-104.5-70.9-170.3-70.9-19.6 0-41.9 2.2-60.6 6.8-0.5 11.3-0.3 22.3 0.7 33.5 18.3-5.3 40.5-7.9 59.9-7.9 56.2 0 108.4 22.2 145.3 61.2-7.9 8.1-15.4 16.7-22.3 25.7-29.9-34.1-75-54.4-123-54.4-17.9 0-35.3 2.7-51.8 8.1 2.4 10.7 5.6 21.2 9.4 31.4 13.5-4.7 27.7-7 42.4-7 41.6 0 80.3 19.5 103.2 51.5-7.2 12.3-13.3 25.1-18.4 38.3-11.6-33.2-45.2-57.4-84.8-57.4-9.8 0-19.6 1.6-28.9 4.6 5.2 10 11.2 19.7 17.9 29 3.6-0.8 7.2-1.1 11-1.1 29.9 0 54.3 22.7 54.3 50.5 0 4.6-0.7 9.2-2.1 13.6 6 4.3 12.3 8.4 18.7 12.2 3.7 2.3 7.4 4.4 11.2 6.4q4.5 2.4 9.2 4.8c4.1 2 8.3 4 12.5 5.8 13.2-124.3 127.3-220.9 262.1-220.9 47.4 0 93.6 11.8 134 34 0.8-4.2 1.6-8.5 2.3-12.7 1.1-7.2 1.9-14.6 2.3-22-42.5-20.8-90-31.8-138.6-31.8z"/>
	<path id="Object 33" class="s1" d="m1189.7 642q9.8 3 19.9 5.2c4.8 1.1 9.7 2.1 14.7 2.9 2.2-97.6 88.2-176.5 193.6-176.5 40.2 0 78.4 11.3 111.2 32.8 2.2-4.2 4.3-8.5 6.2-12.8q4-8.8 7.2-17.9c-37.1-22.7-79.9-34.5-124.6-34.5-121.7 0-221.5 89-228.2 200.8z"/>
	<path id="Object 34" class="s1" d="m1259.1 654v0.1c5.5 0.3 11 0.4 16.5 0.4h1.5c5.6 0 11.3-0.2 16.9-0.5 0-63.7 55.6-115.4 123.9-115.4 26.4 0 52.1 7.9 73.2 22.4 3.7-4 7.2-8.2 10.5-12.4 3.6-4.5 7-9.1 10.3-13.7-27.2-18.7-60.1-28.8-94-28.8-87.5 0-158.8 66.3-158.8 147.9z"/>
	<path id="Object 35" class="s1" d="m1328.9 649.8c4.9-0.9 9.8-1.9 14.6-3 7.5-1.7 14.9-3.8 22.1-6.1 6.3-21.4 27.4-37.2 52.3-37.2 6.8 0 13.3 1.1 19.5 3.4 6.2-4.1 12.3-8.5 18.2-13 3.8-3 7.6-6 11.2-9.2-14.4-8.9-31.5-13.7-48.9-13.7-47.6 0-86.6 35-89 78.8z"/>
	<path id="Object 36" class="s2" d="m996.5 285.1c47.9-4.5 97-4.3 146 11.3 4.2-36 24.1-61.2 52.2-80.7 64.3-44.9 168.2-39.6 207 47.5h155.9c-39.7-119.2-121.3-199.2-275.9-203.1-147.8-3.8-248.4 86.3-285.2 225z"/>
</svg>